<?xml version="1.0" standalone="no"?><!DOCTYPE svg PUBLIC "-//W3C//DTD SVG 1.1//EN" "http://www.w3.org/Graphics/SVG/1.1/DTD/svg11.dtd"><svg t="1766994719633" class="icon" viewBox="0 0 1048 1024" version="1.1" xmlns="http://www.w3.org/2000/svg" p-id="11328" xmlns:xlink="http://www.w3.org/1999/xlink" width="204.6875" height="200"><path d="M28.192 767.798a27.815 27.815 0 0 1 13.504-52.187 27.977 27.977 0 0 1 13.504 3.497l440.633 244.473L973.05 807.557a169.205 169.205 0 0 0 14.58-116.748 151.397 151.397 0 0 0-18.4-43.472l-481.36 164.47-459.786-257.6a27.815 27.815 0 1 1 27.224-48.421l438.104 245.441 479.853-163.986a121.806 121.806 0 0 0 10.061-110.077 180.503 180.503 0 0 0-24.695-44.548L488.193 601.93 28.084 345.35a27.815 27.815 0 1 1 26.9-48.42l437.997 244.257 470.815-169.474a139.883 139.883 0 0 0 19.907-120.784 134.826 134.826 0 0 0-14.58-30.505l-480.93 182.548L0 136.655 538.013 0l452.361 158.606 4.358 4.143a180.503 180.503 0 0 1 42.18 70.426 195.352 195.352 0 0 1-28.73 172.487 233.605 233.605 0 0 1 26.901 50.52 177.544 177.544 0 0 1-16.894 164.093 207.727 207.727 0 0 1 23.081 54.931 227.58 227.58 0 0 1-24.103 168.721l-5.38 9.738-521.872 170.281L28.03 767.691z m464.305-426.321l408.89-155.11-92.861-32.55-406.469 138.27z" fill="#2C2C2C" p-id="11329"></path></svg>