<?xml version="1.0" standalone="no"?><!DOCTYPE svg PUBLIC "-//W3C//DTD SVG 1.1//EN" "http://www.w3.org/Graphics/SVG/1.1/DTD/svg11.dtd"><svg t="1766994948228" class="icon" viewBox="0 0 1181 1024" version="1.1" xmlns="http://www.w3.org/2000/svg" p-id="16884" xmlns:xlink="http://www.w3.org/1999/xlink" width="230.6640625" height="200"><path d="M963.426462 775.404308H685.056a38.360615 38.360615 0 0 1-38.124308-38.124308c0-20.952615 17.171692-38.203077 38.124308-38.203077h278.370462c20.952615 0 38.203077 17.250462 38.203076 38.203077a38.360615 38.360615 0 0 1-38.203076 38.124308z" fill="#000000" p-id="16885"></path><path d="M786.116923 876.465231V597.937231c0-20.952615 17.171692-38.124308 38.124308-38.124308s38.124308 17.171692 38.124307 38.124308v278.449231a38.360615 38.360615 0 0 1-38.124307 38.124307 38.360615 38.360615 0 0 1-38.203077-38.203077z m-199.837538 137.609846a38.754462 38.754462 0 0 1-26.151385-10.476308L123.116308 566.744615A333.508923 333.508923 0 0 1 24.969846 330.043077c0-89.009231 35.131077-173.607385 97.988923-236.465231C185.265231 31.586462 274.274462 8.349538 373.051077 27.805538c84.598154 16.541538 170.692923 63.645538 235.756308 128.708924 14.178462 14.257231 14.178462 38.203077 0 52.381538a37.494154 37.494154 0 0 1-52.381539 0C449.378462 101.927385 273.486769 47.261538 175.497846 145.329231a258.048 258.048 0 0 0-76.406154 184.083692c0 69.553231 26.939077 135.483077 76.406154 184.083692l436.932923 437.011693c14.257231 14.178462 14.257231 38.203077 0 52.381538a33.555692 33.555692 0 0 1-26.151384 11.264z" fill="#000000" p-id="16886"></path><path d="M1029.986462 577.063385a38.754462 38.754462 0 0 1-26.151385-10.397539 37.494154 37.494154 0 0 1 0-52.460308 258.048 258.048 0 0 0 76.327385-184.083692 256.787692 256.787692 0 0 0-76.327385-184.083692c-60.652308-60.573538-144.384-56.083692-189.282462-48.600616a391.876923 391.876923 0 0 0-202.121846 105.55077 37.494154 37.494154 0 0 1-52.381538 0 37.494154 37.494154 0 0 1 0-52.381539A458.436923 458.436923 0 0 1 801.870769 24.891077c101.769846-18.038154 192.275692 6.695385 254.424616 68.765538a333.508923 333.508923 0 0 1 98.067692 236.465231c0 89.088-34.500923 173.686154-98.067692 236.544a40.172308 40.172308 0 0 1-26.230154 10.397539z" fill="#000000" p-id="16887"></path></svg>