<?xml version="1.0" standalone="no"?><!DOCTYPE svg PUBLIC "-//W3C//DTD SVG 1.1//EN" "http://www.w3.org/Graphics/SVG/1.1/DTD/svg11.dtd"><svg t="1766993787870" class="icon" viewBox="0 0 1024 1024" version="1.1" xmlns="http://www.w3.org/2000/svg" p-id="8097" xmlns:xlink="http://www.w3.org/1999/xlink" width="200" height="200"><path d="M647.613383 101.828996h11.420074l5.710037 5.710037c-1.555033 13.095019-1.950929 25.255494 1.903346 36.163569 16.572431-0.902186 24.263851-2.196461 34.260223 3.806692v9.516728l-5.710037 5.710037-24.743494 1.903346c6.791138 9.885978 15.516074 13.481398 19.033457 26.64684l-11.420075 5.710038-5.710037-1.903346-7.613383 30.453531c15.392357 13.557532 18.803152 33.578825 24.743495 57.100372 24.509383 97.043985-25.885502 159.447078-95.167286 186.527881-33.388491 13.053145-73.417755 18.633755-98.973978 39.97026-20.257309 16.91313-9.326394 41.194112 1.903346 57.100372 59.302543 15.049755 69.913695-76.548758 148.460966-19.033457h1.903346v-13.32342l-1.903346-3.806692-19.033457-1.903345-1.903346-11.420075 1.903346-3.806691h20.936803c-2.942572-10.540729-10.548342-21.144268 0-28.550186l5.710037-1.903346 9.516729 19.033458 7.613383-1.903346 9.516728-17.130112 11.420075 3.806692v1.903345l-11.420075 32.356878c12.33939 5.376952 24.381859 7.763747 17.130112 22.840148l-5.710037 1.903346c-5.710037-1.903346-9.992565-4.758364-15.702603-6.66171 0.633814 8.881011 8.882914 15.862483 9.516729 24.743495-1.376119-0.190335-9.571926 2.55429-11.420074 0-1.884312-2.601874-4.307271-11.220223-5.710038-11.420075-1.661621-0.237918-3.57258 12.609665-5.2342 12.371747v9.516729c35.33942 93.737874-72.671643 81.514587-102.780669 118.007435-24.933829 30.211807-4.60229 103.450647-11.420075 140.847584-10.997532 60.322736-52.621799 41.590007-100.877323 59.003717-19.136238 6.905338-19.714855 27.427212-43.776952 30.453532l-7.613383-7.613383c-3.475509-67.774335-2.343019-118.658379 43.776952-146.557621 17.701115-10.710126 41.249309-14.128535 57.100372-24.743494 0.173204-133.770944 82.123658-82.974454 118.007435-142.75093-1.031613-10.335167-2.284015-13.085502-9.516729-17.130111h-15.226766c-23.824178 12.432654-32.893621 33.371361-66.6171 39.97026-68.13026 13.32342-115.552119-70.631257-83.747212-127.524164 40.322379-72.136803 167.304089-55.103762 199.851301-135.137546 22.449963-55.210349-14.522528-126.363123-64.713755-131.330855l-9.516728 7.613383c1.931896 62.897963 7.160387 118.388104-34.260223 146.557621-67.403182 45.843985-138.563569-14.920327-146.557621-76.133829l-5.710037 3.806691c-8.75539 20.280149-28.550186 38.717859-43.776952 53.29368l-9.516729-1.903345c-2.323985-5.56919-3.941829-7.438275-1.903345-13.32342l47.583643-62.810409-30.453532 20.936803-9.516728-5.710038v-9.516728l51.390334-39.97026 7.613383-47.583644c8.062572-29.170677 64.689011-57.187926 98.973978-59.003717 13.435717 6.223941 20.919673 12.318454 20.936803 32.356877l-1.903346 5.710037-1.903346 3.806692c-21.517323 34.323033-98.31542 75.216416-59.003717 138.944238 9.28452 15.049755 26.06061 20.175465 49.486989 15.226766 42.52455-43.967286-10.816714-117.116669 47.583643-154.171004 16.882677-10.71203 41.803182-13.814483 64.713754-5.710037l34.260223 20.936803h1.903346v-7.613383a93.296297 93.296297 0 0 0-11.420074-24.743495c-10.388461 5.519703-20.356283 9.625219-32.356877 3.806692v-9.516729c5.213264-8.643093 15.84345-8.719227 22.840148-15.226766l-22.840148-17.130111 1.903345-5.710037c3.045353-5.139033 0.645234-2.620907 5.710037-5.710037 12.21377-3.012996 18.161725 8.487019 32.356878 11.420074-0.475836-14.219896 1.256208-22.370022 5.710037-30.453532z m-218.884758 91.360595l-13.323421 9.516729-1.903345 13.32342 3.806691-1.903346c4.14739-8.439435 10.997532-14.101888 11.420075-20.936803z m62.810408 574.810409l-43.776951 15.226766c-24.161071 15.455167-46.662424 58.855257-34.260223 102.780669l9.516728-9.516729c37.305576-13.051242 98.224059-7.864625 100.877324-57.100371-12.701026 9.413948-36.163569 31.351911-60.907063 20.936803-11.654186-5.053383-15.706409-13.112149-15.226766-30.453532 11.515242-20.91777 36.942037-18.340639 45.680297-41.873606h-1.903346z" fill="#3AEAAE" p-id="8098"></path></svg>