<?xml version="1.0" standalone="no"?><!DOCTYPE svg PUBLIC "-//W3C//DTD SVG 1.1//EN" "http://www.w3.org/Graphics/SVG/1.1/DTD/svg11.dtd"><svg t="1766994998669" class="icon" viewBox="0 0 1024 1024" version="1.1" xmlns="http://www.w3.org/2000/svg" p-id="18940" xmlns:xlink="http://www.w3.org/1999/xlink" width="200" height="200"><path d="M731.996237 496.442521c11.367074 0 20.554657-9.187582 20.554657-20.554656 0-11.367074-9.187582-20.554657-20.554657-20.554657H53.825024a20.554657 20.554657 0 1 0 0 41.109313h678.171213zM74.37968 373.138664H300.432738a20.566698 20.566698 0 0 0 0-41.109313H74.37968a20.554657 20.554657 0 1 0 0 41.109313zM300.432738 578.649106H74.37968a20.542615 20.542615 0 1 0 0 41.109314H300.432738a20.554657 20.554657 0 1 0 0-41.109314z" p-id="18941"></path><path d="M937.193603 471.577046c-0.096331-0.43349-0.301035-0.842897-0.43349-1.30047-0.43349-1.601505-0.722484-3.227093-1.601505-4.720226a19.603387 19.603387 0 0 0-12.414676-9.307996L350.717592 149.939417c-0.08429-0.036124-0.168579-0.036124-0.240828-0.08429a19.145814 19.145814 0 0 0-15.232361-2.275823c-10.476011 2.85381-16.68937 13.871684-13.871684 24.552399l64.060207 227.498024c2.817686 10.704798 13.570649 17.03857 24.04666 14.172719 10.476011-2.877893 16.68937-13.883725 13.871684-24.576482l-51.501035-182.896707 503.450612 269.558608-503.450612 269.546566 51.501035-182.884666c2.817686-10.716839-3.407714-21.746754-13.871684-24.576482-10.46397-2.877893-21.228975 3.492004-24.04666 14.18476l-64.060207 227.473942c-2.817686 10.704798 3.407714 21.698589 13.871684 24.56444 5.382502 1.457008 10.789087 0.43349 15.208278-2.287864 0.08429-0.048166 0.180621-0.048166 0.264911-0.08429l572.074506-306.272813a19.89238 19.89238 0 0 0 12.414675-9.307996c0.842897-1.517215 1.143932-3.118721 1.565381-4.732267a10.11477 10.11477 0 0 0 0.43349-1.288429c0.313076-1.481091 0.3492-2.877893 0.313077-4.334901a18.59191 18.59191 0 0 0-0.325118-4.310819z" p-id="18942"></path></svg>