<?xml version="1.0" standalone="no"?><!DOCTYPE svg PUBLIC "-//W3C//DTD SVG 1.1//EN" "http://www.w3.org/Graphics/SVG/1.1/DTD/svg11.dtd"><svg t="1766741752787" class="icon" viewBox="0 0 1077 1024" version="1.1" xmlns="http://www.w3.org/2000/svg" p-id="12821" xmlns:xlink="http://www.w3.org/1999/xlink" width="210.3515625" height="200"><path d="M1077.460765 804.659965h0.107784l-0.431135-3.017946a213.573601 213.573601 0 0 0-6.197569-44.622494L982.287669 116.945424A135.160886 135.160886 0 0 0 848.74354 0H229.094469a135.160886 135.160886 0 0 0-133.54413 116.783748L6.844271 757.019525a213.573601 213.573601 0 0 0-6.197568 44.622494l-0.431135 3.017946h0.107783C0.377243 805.953371 0 807.138993 0 808.378506c0 118.885532 96.682069 215.567602 215.567602 215.567602h646.702805c118.885532 0 215.567602-96.682069 215.567602-215.567602 0-1.239514-0.377243-2.425136-0.377244-3.718541zM148.957213 124.059155A81.10731 81.10731 0 0 1 229.094469 53.8919h619.649071c40.365033 0 74.801958 30.179464 80.137256 70.32893l72.107363 520.595759A213.411926 213.411926 0 0 0 862.270407 592.810905H215.567602c-53.083522 0-101.155097 20.047787-138.771644 52.005684l72.161255-520.757434zM862.270407 970.054208H215.567602a161.783485 161.783485 0 0 1-161.567918-160.651755l5.820325-42.089575A161.567917 161.567917 0 0 1 215.567602 646.702805h646.702805c74.85585 0 137.424346 51.412873 155.747592 120.610073l5.820325 42.143466A161.783485 161.783485 0 0 1 862.270407 970.054208z" p-id="12822"></path><path d="M862.270407 700.594706c-59.442766 0-107.783801 48.341035-107.783801 107.7838s48.341035 107.783801 107.783801 107.783801 107.783801-48.341035 107.783801-107.783801-48.341035-107.783801-107.783801-107.7838z m0 161.675701c-29.694437 0-53.8919-24.197463-53.891901-53.891901s24.197463-53.8919 53.891901-53.8919 53.8919 24.197463 53.8919 53.8919-24.197463 53.8919-53.8919 53.891901zM511.973054 781.432556h-377.243303a26.94595 26.94595 0 0 0 0 53.891901h377.243303a26.94595 26.94595 0 0 0 0-53.891901zM377.243303 485.027104h287.405505A116.945424 116.945424 0 0 0 781.432556 368.297248c0-33.951897-17.353192-67.095416-47.64044-90.915637-22.041787-17.353192-44.676385-25.868112-68.819957-25.868112A152.244619 152.244619 0 0 0 503.889269 149.603916c-75.98758 8.353245-135.53813 77.550445-135.53813 157.633808v16.598706A80.945634 80.945634 0 0 0 296.405452 404.189253C296.405452 448.757855 332.674701 485.027104 377.243303 485.027104z m0-107.783801h44.891953V307.237724c0-52.921846 38.424925-98.67607 87.520446-104.065259a98.460502 98.460502 0 0 1 106.113152 71.784011 41.874007 41.874007 0 0 0 43.760223 30.664491c9.64665-0.916162 22.742382-0.161676 40.903953 14.119678 16.975949 13.365191 27.107626 31.47287 27.053734 48.502711A62.837956 62.837956 0 0 1 664.648808 431.135203H377.243303a26.94595 26.94595 0 0 1 0-53.8919z" p-id="12823"></path></svg>