<?xml version="1.0" standalone="no"?><!DOCTYPE svg PUBLIC "-//W3C//DTD SVG 1.1//EN" "http://www.w3.org/Graphics/SVG/1.1/DTD/svg11.dtd"><svg t="1766848470702" class="icon" viewBox="0 0 1024 1024" version="1.1" xmlns="http://www.w3.org/2000/svg" p-id="15734" xmlns:xlink="http://www.w3.org/1999/xlink" width="200" height="200"><path d="M512 1024C229.7 1024 0 794.3 0 512S229.7 0 512 0c95 0 187.7 26.2 268.2 75.8 18.5 11.4 24.3 35.7 12.9 54.2-11.3 18.5-35.6 24.3-54.2 12.9-68.1-42-146.5-64.1-226.9-64.1C273.1 78.8 78.8 273.1 78.8 512S273.1 945.2 512 945.2 945.2 750.9 945.2 512c0-48.3-7.9-95.7-23.4-141.1-7.1-20.6 3.8-43 24.5-50 20.4-7.2 43 3.8 50 24.5C1014.7 399 1024 455 1024 512c0 282.3-229.7 512-512 512z" p-id="15735"></path><path d="M447.6 300.6c-21.5 0-39.4 17.3-39.4 39.4v240.3c0 11.7 6.7 22.4 17.2 27.5l61.5 30 167 81.4c5.8 2.6 11.6 4.2 17.3 4.2 14.7 0 28.4-8.4 35.7-22.1 9.4-19.4 1.1-43.1-18.4-52.5L504 558.5c-10.5-5.1-17.2-15.8-17.2-27.5V340c0.2-22-17.1-39.4-39.2-39.4z" p-id="15736"></path></svg>