<?xml version="1.0" standalone="no"?><!DOCTYPE svg PUBLIC "-//W3C//DTD SVG 1.1//EN" "http://www.w3.org/Graphics/SVG/1.1/DTD/svg11.dtd"><svg t="1766848384931" class="icon" viewBox="0 0 1024 1024" version="1.1" xmlns="http://www.w3.org/2000/svg" p-id="12703" xmlns:xlink="http://www.w3.org/1999/xlink" width="200" height="200"><path d="M934.4 593.408l25.088-111.104c1.536-6.656 2.56-13.824 2.048-20.992 1.536-29.696-5.632-59.392-21.504-84.992-25.088-40.448-62.976-61.952-112.64-64.512-3.072-0.512-5.632-0.512-8.704-0.512l-160.768-0.512c7.168-31.744 11.264-64 11.264-94.208 0-30.72-3.584-61.44-10.24-92.16-0.512-2.56-1.536-4.608-2.048-6.656-17.92-61.952-75.264-104.96-139.776-104.448-77.824 0-136.704 62.464-136.704 145.408v10.24c-3.584 86.528-75.776 161.792-165.888 173.056l-126.976 2.048C46.08 340.48 10.24 370.688 6.656 411.648c0 2.048-0.512 4.096-0.512 6.144l-0.512 440.832c0 40.448 33.792 73.728 74.752 73.728h139.264l428.032-0.512c39.424 35.328 91.136 56.832 147.968 56.832 122.368 0 221.696-99.328 221.696-221.696 0.512-70.144-31.744-133.12-82.944-173.568zM178.688 857.088H82.432l0.512-438.272h3.584l92.16-1.536v439.808z m76.288-446.464c114.176-27.648 198.656-125.952 202.24-241.152V163.328 158.72c0-34.816 20.48-70.656 59.904-70.656 31.744 0 59.392 22.016 66.56 53.76 0.512 1.536 1.024 3.584 1.536 5.12 4.608 23.552 7.168 47.104 7.168 70.656 0 36.864-7.68 80.384-21.504 119.296-4.096 11.264-2.048 24.064 5.12 33.792 7.168 9.728 18.432 15.872 31.232 15.872l211.456 0.512c1.024 0 2.56 0.512 3.584 0.512 25.088 1.024 40.96 9.728 52.224 28.16 8.192 12.8 11.776 27.648 10.24 43.008v5.632l-0.512 1.536-20.48 90.112c-21.504-7.168-44.544-10.752-68.096-10.752-122.368 0-221.696 99.328-221.696 221.696 0 31.744 6.656 62.464 18.944 89.6l-338.944 0.512V410.624z m344.064 456.704z m5.12 9.728l0.512 0.512-0.512-0.512z m6.144 9.728c0 0.512 0.512 0.512 0.512 1.024 0 0-0.512-0.512-0.512-1.024z m6.656 9.728c0 0.512 0.512 0.512 0.512 1.024-0.512-0.512-0.512-0.512-0.512-1.024z m7.168 9.216c0 0.512 0 0.512 0 0 0 0.512 0 0.512 0 0z m172.544 26.624c-91.136 0-165.376-74.24-165.376-165.376 0-91.136 74.24-165.376 165.376-165.376 91.136 0 165.376 74.24 165.376 165.376-0.512 91.136-74.24 165.376-165.376 165.376z" fill="#040000" p-id="12704"></path><path d="M924.16 729.6c-1.024-3.072-3.584-5.12-6.656-5.632l-72.704-11.264-32.256-69.12c2.048-4.096 0-9.216-4.096-11.264-4.096-2.048-9.216 0-11.264 4.096-1.024 2.048-1.024 5.12 0 7.168l-32.768 69.12-72.704 10.752c-3.072 0.512-5.632 2.56-6.656 5.632-1.024 3.072-0.512 6.656 2.048 8.704l52.736 54.272-12.8 76.288c-1.024 4.608 2.56 9.216 7.168 9.728 2.048 0.512 4.096 0 5.632-1.024l65.024-35.84 64.512 35.84c1.024 0.512 2.56 1.024 4.096 1.024 4.608 0 8.704-3.584 8.704-8.704 0-1.024 0-2.048-0.512-3.072l-12.288-74.752 52.736-53.76c2.56-2.048 3.072-5.12 2.048-8.192z" p-id="12705"></path></svg>