<?xml version="1.0" standalone="no"?><!DOCTYPE svg PUBLIC "-//W3C//DTD SVG 1.1//EN" "http://www.w3.org/Graphics/SVG/1.1/DTD/svg11.dtd"><svg t="1766994019788" class="icon" viewBox="0 0 1024 1024" version="1.1" xmlns="http://www.w3.org/2000/svg" p-id="10315" xmlns:xlink="http://www.w3.org/1999/xlink" width="200" height="200"><path d="M540.448 755.424c12.384-14.864 26.368-24.368 39.872-29.568l-39.872-0.336v29.904z m-23.76 58.832H251.696a37.12 37.12 0 0 0-37.088 37.088v20.88h317.296c-12.832-21.104-16.16-41.024-15.216-57.968zM956.24 565.6l-0.032 0.096-77.76 83.6-74.288-14.064-24.608-69.536 84.256-89.536h3.12a110.528 110.528 0 0 0-120.272 154.208c-10.976 16.176-68.096 98.848-104.272 126.368a69.008 69.008 0 1 0 47.84 65.664c0-9.296-1.792-18.224-5.168-26.336 10.064-10.688 72.304-84.368 119.824-109.072A110.576 110.576 0 0 0 958 584.944a115.344 115.344 0 0 0-1.76-19.344zM621.248 858.96a36.576 36.576 0 0 1-36.608-36.56 36.544 36.544 0 1 1 36.608 36.56z" fill="" p-id="10316"></path><path d="M587.744 467.36l-57.952 57.92v8.816l82.496 81.856 15.824-15.216 64.288 66.656 30.448-31.552-62.56-63.168 15.744-15.792z m342.112 329.648l-99.392-95.088s-54.992 15.808-91.28 77.232l99.472 101.76s25.12 21.632 53.216 4.672l35.68-35.104c0-0.016 20.464-25.056 2.304-53.472z m-59.712 64.352a11.376 11.376 0 0 1-16.16-0.016l-77.04-77.568a11.44 11.44 0 0 1 16.224-16.112l77.024 77.568a11.36 11.36 0 0 1-0.048 16.128z m35.392-35.376a11.456 11.456 0 0 1-16.16-0.032l-77.04-77.584a11.36 11.36 0 0 1 0.016-16.128 11.488 11.488 0 0 1 16.24 0.032l77.04 77.552a11.52 11.52 0 0 1-0.096 16.16z" fill="" p-id="10317"></path><path d="M540.448 755.424v-29.888l39.872 0.336c27.504-10.576 52.128-6.016 52.128-6.016l27.904-31.376-36.08-41.872c-32.528 6.992-41.808-9.264-41.808-9.264l-26.352-25.936H165.456c-22.896 0-41.44-16.592-41.44-37.088V223.056c0-20.448 18.544-37.088 41.44-37.088h572.048c22.88 0 41.472 16.64 41.472 37.088V457.36a140.896 140.896 0 0 1 58.592-15.904V211.104a74.176 74.176 0 0 0-74.192-74.192l-623.184-4.992a74.176 74.176 0 0 0-74.176 74.192v442.016a74.192 74.192 0 0 0 74.176 74.192l222.896 1.808V764.4c0 10.288 8.336 18.56 18.544 18.56h140.272c0.576 0 1.088-0.288 1.664-0.288 4.272-10.944 8.896-17.488 8.896-17.488 2.496-3.84 5.296-6.576 7.984-9.76z" fill="" p-id="10318"></path></svg>