<?xml version="1.0" standalone="no"?><!DOCTYPE svg PUBLIC "-//W3C//DTD SVG 1.1//EN" "http://www.w3.org/Graphics/SVG/1.1/DTD/svg11.dtd"><svg t="1766848132069" class="icon" viewBox="0 0 1024 1024" version="1.1" xmlns="http://www.w3.org/2000/svg" p-id="7497" xmlns:xlink="http://www.w3.org/1999/xlink" width="200" height="200"><path d="M876.8 960H147.2c-51.2 0-96-44.8-96-96V313.6c0-51.2 44.8-96 96-96h729.6c51.2 0 96 44.8 96 96v544c0 57.6-38.4 102.4-96 102.4zM147.2 281.6c-19.2 0-32 19.2-32 32v544c0 19.2 12.8 38.4 32 38.4h729.6c19.2 0 32-12.8 32-32V313.6c0-19.2-12.8-32-32-32H147.2z" fill="#333333" p-id="7498"></path><path d="M928 512H83.2C64 512 51.2 492.8 51.2 480S64 448 83.2 448h844.8c19.2 0 32 12.8 32 32s-12.8 32-32 32zM697.6 281.6c-19.2 0-32-12.8-32-32V160c0-19.2-12.8-32-32-32H390.4c-12.8 0-32 12.8-32 32V256c0 19.2-12.8 32-32 32s-32-19.2-32-38.4V160c0-57.6 44.8-96 96-96h243.2c51.2 0 96 44.8 96 96V256c0 12.8-12.8 25.6-32 25.6z" fill="#333333" p-id="7499"></path></svg>