<?xml version="1.0" standalone="no"?><!DOCTYPE svg PUBLIC "-//W3C//DTD SVG 1.1//EN" "http://www.w3.org/Graphics/SVG/1.1/DTD/svg11.dtd"><svg t="1766848189409" class="icon" viewBox="0 0 1024 1024" version="1.1" xmlns="http://www.w3.org/2000/svg" p-id="8581" xmlns:xlink="http://www.w3.org/1999/xlink" width="200" height="200"><path d="M939.4 128.1H83.3c-11 0-20 9-20 20v600c0 11 9 20 20 20h856.1c11 0 20-9 20-20v-600c0-11-9-20-20-20zM903 697.7c0 11-9 20-20 20H139.6c-11 0-20-9-20-20V198.6c0-11 9-20 20-20H883c11 0 20 9 20 20v499.1z" fill="#0C2B4A" p-id="8582"></path><path d="M448 752.9h127.1v78.8H448z" fill="#0C2B4A" p-id="8583"></path><path d="M702 895.6H318.7c-17.7 0-32-14.3-32-32s14.3-32 32-32H702c17.7 0 32 14.3 32 32s-14.3 32-32 32z" fill="#0C2B4A" p-id="8584"></path></svg>